<?xml version="1.0" encoding="utf-8"?>
<!-- Generator: Adobe Illustrator 19.2.0, SVG Export Plug-In . SVG Version: 6.00 Build 0)  -->
<svg version="1.1" id="Layer_1" xmlns="http://www.w3.org/2000/svg" xmlns:xlink="http://www.w3.org/1999/xlink" x="0px" y="0px"
	 viewBox="0 0 501 133" style="enable-background:new 0 0 501 133;" xml:space="preserve">
<style type="text/css">
	.st0{fill:#F1632A;}
	.st1{fill:#7C7C7C;}
</style>
<path class="st0" d="M501,129c-6.5,1.1-13,2.9-19.6,3c-17,0.4-28-9.7-28.4-26.7c-0.6-24.8-0.2-49.6-0.3-74.4c0-3.6,0-7.3,0-11.9
	c6.1,3.2,11.6,5.8,16.8,8.9c1,0.6,1.2,2.8,1.4,4.3c0.2,2.1,0.1,4.3,0.1,7c8.3,0,16.4,0,24.8,0c0,5.6,0,10.6,0,16
	c-8.1,0-16.1,0-24.2,0c-0.2,1.1-0.5,1.8-0.5,2.6c0,13.2,0,26.3,0.1,39.5c0,2.3,0.3,4.7,0.6,6.9c1.4,8.8,6.3,12.8,15.2,11.7
	c4.7-0.6,9.4-2,14.1-3.1C501,118.3,501,123.7,501,129z"/>
<path class="st1" d="M176,1c0.2,1.5,0.5,2.9,0.5,4.4c0,39.9,0,79.9,0,119.8c0,1.5-0.2,2.9-0.3,4.5c-6.1,0-11.8,0-18.1,0
	c0-1.9,0-3.5,0-5.1c0-36.5,0.1-72.9-0.1-109.4c0-3.7,1.2-5.7,4.5-7.2c4.3-2,8.3-4.6,12.4-7C175.3,1,175.7,1,176,1z"/>
<path class="st0" d="M329,1c4.8,2.6,9.6,5.2,14.2,8c1.3,0.8,2.8,2.6,2.8,4c0.1,38.5,0.1,76.9,0,115.4c0,0.3-0.2,0.6-0.4,1.2
	c-5.6,0-11.4,0-17.5,0c-0.1-1.2-0.4-2.5-0.4-3.8c0-40.5,0-81,0-121.4c0-1.2,0.1-2.3,0.2-3.5C328.3,1,328.7,1,329,1z"/>
<path class="st1" d="M215,1c0.1,1.5,0.3,3,0.3,4.5c0,39.8,0,79.7,0,119.5c0,1.5,0,3,0,4.7c-6.1,0-11.9,0-18,0
	c-0.1-1.8-0.2-3.4-0.2-5c0-36.5,0.1-73-0.1-109.5c0-3.8,1.2-5.6,4.5-7.2c4.3-2.1,8.3-4.7,12.5-7C214.3,1,214.7,1,215,1z"/>
<path class="st0" d="M131,1c0.7,0.4,1.3,0.9,2,1.3c4.3,2.6,6.3,7,4.8,11.4s-4.7,6.7-9.5,6.5c-4.8-0.2-7.6-2.9-8.9-7.4
	c-1.2-4.2,1.1-8.4,5.4-10.7c0.7-0.4,1.4-0.7,2.2-1.1C128.3,1,129.7,1,131,1z"/>
<path class="st0" d="M378.6,88.5c0.8,16.8,9.8,26.8,24.5,27.8c11.3,0.8,16.7-2.8,18.4-12.4c1.9,0,3.9,0,5.8,0c3.8,0,7.6,0,11.8,0
	c0.9,9.1-3.3,15.5-9.6,20.5c-19.2,15.3-51.1,9-63.1-12.4c-11.2-20-7.7-48.6,8.2-63.9c12-11.5,26.5-13.7,41.7-8.7
	c14.4,4.7,21.1,16,22.8,30.6c0.7,5.9,0.8,11.9,1.2,18.6c-10.7,0-20.9,0-31,0C399.2,88.5,389.1,88.5,378.6,88.5z M421.6,73.6
	c0.6-11.1-7-19.5-18.3-20.5c-11-1-21.5,8.3-23,20.5C394.1,73.6,407.8,73.6,421.6,73.6z"/>
<path class="st1" d="M309.9,130c-6.1,0-11.5,0.1-17-0.1c-1.1,0-2.5-1.3-3-2.4c-0.9-1.9-1.3-4.1-1.7-5.3c-6.7,3.1-12.9,7.1-19.8,9
	c-5.2,1.4-11.4,1.1-16.7-0.3c-10.5-2.6-16.8-9.8-18-20.8c-1.3-11.2,2.8-21,13-25.2c11.7-4.9,24.2-8.2,36.5-11.4
	c3.8-1,4.7-2.4,4.6-5.9c-0.1-9.2-2-12.4-9-14.6c-8.6-2.7-18.8-0.5-22.5,5.1c-1.4,2.1-1.8,4.9-2.7,7.8c-5.8,0-12,0-18.7,0
	c-0.8-9,3.6-15.4,10-20.6c13-10.7,39.7-11,53.2-0.8c5.4,4.1,7.3,9.8,7.6,16.2c0.4,7.3,0.2,14.7,0.4,22
	C306.5,98.3,304.5,114.2,309.9,130z M287.1,86.4c-8.7,3.1-17.4,5.6-25.7,9.2c-6.9,3-9.6,9.5-7.5,15c2.1,5.4,8.4,8,15.6,6.5
	C282.2,114.4,289.8,101.7,287.1,86.4z"/>
<path class="st1" d="M2.6,18.9c6.4,0,12.2-0.3,17.9,0.2c1.3,0.1,2.8,2.5,3.5,4.1C34.8,48.4,45.4,73.7,56.1,99c0.4,1.1,1,2.1,1.9,4.1
	c1-2.3,1.8-3.8,2.4-5.4C70.6,73.2,81,48.6,91,24c1.6-4.1,3.7-5.7,8-5.2c4.1,0.4,8.2,0.1,13,0.1c-4.9,11.9-9.5,23.1-14.2,34.3
	c-10,23.9-20,47.9-29.9,71.8c-1.4,3.4-3.1,4.7-6.9,4.7c-12.2-0.2-12.3,0-17-11.2C30.8,87,17.7,55.5,4.5,24.1
	C3.9,22.6,3.4,21.1,2.6,18.9z"/>
<path class="st1" d="M119.5,30.3c6.2,0,11.9,0,18,0c0,33.2,0,66,0,99.3c-5.9,0-11.8,0-18,0C119.5,96.5,119.5,63.4,119.5,30.3z"/>
</svg>
